<svg xmlns="http://www.w3.org/2000/svg" width="69" height="65" viewBox="0 0 69 65">
  <g id="Polygon_1" data-name="Polygon 1" fill="none">
    <path d="M34.5,0l8.625,24.173L69,24.828,48.456,40.423,55.822,65,34.5,50.466,13.178,65l7.367-24.577L0,24.828l25.875-.655Z" stroke="none"/>
    <path d="M 34.5 8.926998138427734 L 28.70051574707031 25.18068313598633 L 28.00875473022461 27.11943435668945 L 25.95095443725586 27.17153930664063 L 8.627460479736328 27.61025619506836 L 22.35830688476563 38.03295135498047 L 24.01550674438477 39.2908821105957 L 23.41815185546875 41.28383636474609 L 18.48154067993164 57.75398254394531 L 32.81025695800781 47.9866943359375 L 34.5 46.83486938476563 L 36.18974304199219 47.9866943359375 L 50.51845169067383 57.75398254394531 L 45.58184814453125 41.28383636474609 L 44.98449325561523 39.2908821105957 L 46.64169311523438 38.03295135498047 L 60.37253952026367 27.61025619506836 L 43.04904937744141 27.17153930664063 L 40.99124908447266 27.11943435668945 L 40.29948425292969 25.18068313598633 L 34.5 8.926998138427734 M 34.5 0 L 43.125 24.17250442504883 L 69 24.82778930664063 L 48.45554351806641 40.42250823974609 L 55.82216644287109 65 L 34.5 50.4655647277832 L 13.17782211303711 65 L 20.54446029663086 40.42250823974609 L 0 24.82778930664063 L 25.875 24.17250442504883 L 34.5 0 Z" stroke="none" fill="#fff"/>
  </g>
</svg>
